<svg width="109" height="24" viewBox="0 0 109 24" fill="none" xmlns="http://www.w3.org/2000/svg">
<path d="M7.10156 19C7.00781 18.8125 6.93164 18.4785 6.87305 17.998C6.11719 18.7832 5.21484 19.1758 4.16602 19.1758C3.22852 19.1758 2.45801 18.9121 1.85449 18.3848C1.25684 17.8516 0.958008 17.1777 0.958008 16.3633C0.958008 15.373 1.33301 14.6055 2.08301 14.0605C2.83887 13.5098 3.89941 13.2344 5.26465 13.2344H6.84668V12.4873C6.84668 11.9189 6.67676 11.4678 6.33691 11.1338C5.99707 10.7939 5.49609 10.624 4.83398 10.624C4.25391 10.624 3.76758 10.7705 3.375 11.0635C2.98242 11.3564 2.78613 11.7109 2.78613 12.127H1.15137C1.15137 11.6523 1.31836 11.1953 1.65234 10.7559C1.99219 10.3105 2.44922 9.95898 3.02344 9.70117C3.60352 9.44336 4.23926 9.31445 4.93066 9.31445C6.02637 9.31445 6.88477 9.58984 7.50586 10.1406C8.12695 10.6855 8.44922 11.4385 8.47266 12.3994V16.7764C8.47266 17.6494 8.58398 18.3438 8.80664 18.8594V19H7.10156ZM4.40332 17.7607C4.91309 17.7607 5.39648 17.6289 5.85352 17.3652C6.31055 17.1016 6.6416 16.7588 6.84668 16.3369V14.3857H5.57227C3.58008 14.3857 2.58398 14.9688 2.58398 16.1348C2.58398 16.6445 2.75391 17.043 3.09375 17.3301C3.43359 17.6172 3.87012 17.7607 4.40332 17.7607ZM12.7881 19H11.1621V5.5H12.7881V19ZM15.0117 14.166C15.0117 12.6836 15.3545 11.5059 16.04 10.6328C16.7256 9.75391 17.6338 9.31445 18.7646 9.31445C19.9248 9.31445 20.8301 9.72461 21.4805 10.5449L21.5596 9.49023H23.0449V18.7715C23.0449 20.002 22.6787 20.9717 21.9463 21.6807C21.2197 22.3896 20.2412 22.7441 19.0107 22.7441C18.3252 22.7441 17.6543 22.5977 16.998 22.3047C16.3418 22.0117 15.8408 21.6104 15.4951 21.1006L16.3389 20.125C17.0361 20.9863 17.8887 21.417 18.8965 21.417C19.6875 21.417 20.3027 21.1943 20.7422 20.749C21.1875 20.3037 21.4102 19.6768 21.4102 18.8682V18.0508C20.7598 18.8008 19.8721 19.1758 18.7471 19.1758C17.6338 19.1758 16.7314 18.7275 16.04 17.8311C15.3545 16.9346 15.0117 15.7129 15.0117 14.166ZM16.6465 14.3506C16.6465 15.4229 16.8662 16.2666 17.3057 16.8818C17.7451 17.4912 18.3604 17.7959 19.1514 17.7959C20.1768 17.7959 20.9297 17.3301 21.4102 16.3984V12.0566C20.9121 11.1484 20.165 10.6943 19.1689 10.6943C18.3779 10.6943 17.7598 11.002 17.3145 11.6172C16.8691 12.2324 16.6465 13.1436 16.6465 14.3506ZM31.377 19C31.2832 18.8125 31.207 18.4785 31.1484 17.998C30.3926 18.7832 29.4902 19.1758 28.4414 19.1758C27.5039 19.1758 26.7334 18.9121 26.1299 18.3848C25.5322 17.8516 25.2334 17.1777 25.2334 16.3633C25.2334 15.373 25.6084 14.6055 26.3584 14.0605C27.1143 13.5098 28.1748 13.2344 29.54 13.2344H31.1221V12.4873C31.1221 11.9189 30.9521 11.4678 30.6123 11.1338C30.2725 10.7939 29.7715 10.624 29.1094 10.624C28.5293 10.624 28.043 10.7705 27.6504 11.0635C27.2578 11.3564 27.0615 11.7109 27.0615 12.127H25.4268C25.4268 11.6523 25.5938 11.1953 25.9277 10.7559C26.2676 10.3105 26.7246 9.95898 27.2988 9.70117C27.8789 9.44336 28.5146 9.31445 29.2061 9.31445C30.3018 9.31445 31.1602 9.58984 31.7812 10.1406C32.4023 10.6855 32.7246 11.4385 32.748 12.3994V16.7764C32.748 17.6494 32.8594 18.3438 33.082 18.8594V19H31.377ZM28.6787 17.7607C29.1885 17.7607 29.6719 17.6289 30.1289 17.3652C30.5859 17.1016 30.917 16.7588 31.1221 16.3369V14.3857H29.8477C27.8555 14.3857 26.8594 14.9688 26.8594 16.1348C26.8594 16.6445 27.0293 17.043 27.3691 17.3301C27.709 17.6172 28.1455 17.7607 28.6787 17.7607ZM37.6172 9.49023L37.7139 10.6064C38.3701 9.74512 39.2754 9.31445 40.4297 9.31445C41.4199 9.31445 42.1582 9.61035 42.6445 10.2021C43.1367 10.7939 43.3916 11.6846 43.4092 12.874V19H40.4385V12.9971C40.4385 12.5166 40.3418 12.165 40.1484 11.9424C39.9551 11.7139 39.6035 11.5996 39.0938 11.5996C38.5137 11.5996 38.083 11.8281 37.8018 12.2852V19H34.8398V9.49023H37.6172ZM49.6582 19.1758C48.1992 19.1758 47.0186 18.7422 46.1162 17.875C45.2139 17.002 44.7627 15.8682 44.7627 14.4736V14.2275C44.7627 13.2549 44.9414 12.3965 45.2988 11.6523C45.6621 10.9082 46.1895 10.334 46.8809 9.92969C47.5723 9.51953 48.3926 9.31445 49.3418 9.31445C50.6777 9.31445 51.7324 9.73047 52.5059 10.5625C53.2793 11.3887 53.666 12.543 53.666 14.0254V15.1768H47.7773C47.8828 15.71 48.1143 16.1289 48.4717 16.4336C48.8291 16.7383 49.292 16.8906 49.8604 16.8906C50.7979 16.8906 51.5303 16.5625 52.0576 15.9062L53.4111 17.5059C53.042 18.0156 52.5176 18.4229 51.8379 18.7275C51.1641 19.0264 50.4375 19.1758 49.6582 19.1758ZM49.3242 11.5996C48.457 11.5996 47.9414 12.1738 47.7773 13.3223H50.7656V13.0938C50.7773 12.6191 50.6572 12.2529 50.4053 11.9951C50.1533 11.7314 49.793 11.5996 49.3242 11.5996ZM63.0791 15.0977L64.0371 9.49023H66.876L64.6348 19H62.1299L60.5566 13.3574L58.9746 19H56.4697L54.2285 9.49023H57.0674L58.0078 15.2295L59.5195 9.49023H61.585L63.0791 15.0977ZM72.9229 16.3281C72.9229 16.0762 72.791 15.874 72.5273 15.7217C72.2637 15.5693 71.7627 15.4111 71.0244 15.2471C70.2861 15.083 69.6768 14.8691 69.1963 14.6055C68.7158 14.3359 68.3496 14.0107 68.0977 13.6299C67.8457 13.249 67.7197 12.8125 67.7197 12.3203C67.7197 11.4473 68.0801 10.7295 68.8008 10.167C69.5215 9.59863 70.4648 9.31445 71.6309 9.31445C72.8848 9.31445 73.8926 9.59863 74.6543 10.167C75.416 10.7354 75.7969 11.4824 75.7969 12.4082H72.8262C72.8262 11.6465 72.4248 11.2656 71.6221 11.2656C71.3115 11.2656 71.0508 11.3535 70.8398 11.5293C70.6289 11.6992 70.5234 11.9131 70.5234 12.1709C70.5234 12.4346 70.6523 12.6484 70.9102 12.8125C71.168 12.9766 71.5781 13.1113 72.1406 13.2168C72.709 13.3223 73.207 13.4482 73.6348 13.5947C75.0645 14.0869 75.7793 14.9688 75.7793 16.2402C75.7793 17.1074 75.3926 17.8135 74.6191 18.3584C73.8516 18.9033 72.8555 19.1758 71.6309 19.1758C70.8164 19.1758 70.0898 19.0293 69.4512 18.7363C68.8125 18.4434 68.3145 18.0449 67.957 17.541C67.5996 17.0371 67.4209 16.5068 67.4209 15.9502H70.1895C70.2012 16.3896 70.3477 16.7119 70.6289 16.917C70.9102 17.1162 71.2705 17.2158 71.71 17.2158C72.1143 17.2158 72.416 17.1338 72.6152 16.9697C72.8203 16.8057 72.9229 16.5918 72.9229 16.3281Z" fill="#0099FF"/>
<path d="M105 17C105 17.2652 104.895 17.5196 104.707 17.7071C104.52 17.8946 104.265 18 104 18C103.735 18 103.48 17.8946 103.293 17.7071C103.105 17.5196 103 17.2652 103 17V5C103 4.73478 102.895 4.48043 102.707 4.29289C102.52 4.10536 102.265 4 102 4H88C87.7348 4 87.4804 4.10536 87.2929 4.29289C87.1054 4.48043 87 4.73478 87 5V18C87 18.5304 87.2107 19.0391 87.5858 19.4142C87.9609 19.7893 88.4696 20 89 20H104C105.654 20 107 18.654 107 17V7H105V17ZM97 7H100V9H97V7ZM97 11H100V13H97V11ZM90 7H95V13H90V7ZM90 17V15H100V17H90Z" fill="#274060"/>
</svg>
