<svg width="428" height="319" viewBox="0 0 428 319" fill="none" xmlns="http://www.w3.org/2000/svg">
<path d="M428 280.254H0V280.468H428V280.254Z" fill="#EBEBEB"/>
<path d="M202.872 242.077H37.587C36.2921 242.075 35.0511 241.559 34.1363 240.642C33.2215 239.726 32.7078 238.484 32.7078 237.189V4.84496C32.719 3.55756 33.2378 2.32659 34.1514 1.41943C35.0649 0.51228 36.2995 0.00220539 37.587 0H202.872C204.168 0 205.412 0.514959 206.328 1.43159C207.245 2.34822 207.76 3.59144 207.76 4.88776V237.189C207.76 238.485 207.245 239.729 206.328 240.645C205.412 241.562 204.168 242.077 202.872 242.077V242.077ZM37.587 0.171201C36.3489 0.173468 35.1623 0.66688 34.2876 1.54313C33.413 2.41939 32.9218 3.60688 32.9218 4.84496V237.189C32.9218 238.427 33.413 239.615 34.2876 240.491C35.1623 241.367 36.3489 241.861 37.587 241.863H202.872C204.111 241.861 205.298 241.367 206.174 240.491C207.05 239.615 207.544 238.428 207.546 237.189V4.84496C207.544 3.6061 207.05 2.41862 206.174 1.54261C205.298 0.666602 204.111 0.173463 202.872 0.171201H37.587Z" fill="#EBEBEB"/>
<path d="M388.033 242.077H222.74C221.444 242.075 220.202 241.559 219.286 240.643C218.37 239.727 217.854 238.485 217.852 237.189V4.84496C217.866 3.55678 218.386 2.32582 219.301 1.4189C220.216 0.511981 221.452 0.00218134 222.74 0H388.033C389.319 0.00445505 390.552 0.515525 391.463 1.42244C392.375 2.32935 392.893 3.55904 392.904 4.84496V237.189C392.904 238.482 392.391 239.723 391.479 240.639C390.566 241.555 389.327 242.072 388.033 242.077V242.077ZM222.74 0.171201C221.501 0.173463 220.313 0.666602 219.437 1.54261C218.561 2.41862 218.068 3.6061 218.066 4.84496V237.189C218.068 238.428 218.561 239.615 219.437 240.491C220.313 241.367 221.501 241.861 222.74 241.863H388.033C389.272 241.861 390.46 241.367 391.336 240.491C392.212 239.615 392.705 238.428 392.707 237.189V4.84496C392.705 3.6061 392.212 2.41862 391.336 1.54261C390.46 0.666602 389.272 0.173463 388.033 0.171201H222.74Z" fill="#EBEBEB"/>
<path d="M385.114 288.404H358.09V288.618H385.114V288.404Z" fill="#EBEBEB"/>
<path d="M287.051 286.084H258.452V286.298H287.051V286.084Z" fill="#EBEBEB"/>
<path d="M392.921 296.356H339.481V296.57H392.921V296.356Z" fill="#EBEBEB"/>
<path d="M61.3666 294.918H44.9058V295.132H61.3666V294.918Z" fill="#EBEBEB"/>
<path d="M94.9219 294.918H68.9937V295.132H94.9219V294.918Z" fill="#EBEBEB"/>
<path d="M208.984 291.305H162.281V291.519H208.984V291.305Z" fill="#EBEBEB"/>
<path d="M233.055 54.0393L184.28 102.823V265.283H355.471V54.0393H233.055Z" fill="white"/>
<path d="M355.471 265.745H184.271C184.148 265.745 184.031 265.697 183.944 265.61C183.858 265.523 183.809 265.406 183.809 265.283V102.823C183.809 102.762 183.821 102.702 183.844 102.646C183.868 102.59 183.902 102.54 183.946 102.497L232.738 53.7054C232.825 53.6208 232.941 53.5719 233.063 53.5685H355.471C355.532 53.5685 355.592 53.5804 355.648 53.6037C355.704 53.6269 355.755 53.6609 355.798 53.7039C355.841 53.7468 355.875 53.7977 355.898 53.8538C355.921 53.9099 355.933 53.97 355.933 54.0307V265.283C355.933 265.344 355.921 265.404 355.898 265.46C355.875 265.516 355.841 265.567 355.798 265.61C355.755 265.653 355.704 265.687 355.648 265.71C355.592 265.733 355.532 265.745 355.471 265.745V265.745ZM184.742 264.829H355.009V54.5015H233.251L184.742 103.011V264.829Z" fill="#E0E0E0"/>
<path d="M184.28 102.823L235.46 109.422L233.055 54.0393L184.28 102.823Z" fill="#E6E6E6"/>
<path d="M184.28 102.823H233.055V54.0393L184.28 102.823Z" fill="white"/>
<path d="M233.055 103.276H184.263C184.171 103.277 184.082 103.25 184.006 103.2C183.93 103.15 183.87 103.078 183.835 102.994C183.799 102.911 183.79 102.818 183.808 102.73C183.827 102.641 183.872 102.56 183.937 102.497L232.729 53.7054C232.795 53.642 232.877 53.5986 232.967 53.5804C233.056 53.5622 233.149 53.57 233.234 53.6027C233.318 53.6391 233.389 53.6989 233.439 53.7749C233.489 53.8508 233.516 53.9397 233.517 54.0307V102.823C233.515 102.944 233.465 103.059 233.378 103.144C233.292 103.229 233.176 103.276 233.055 103.276V103.276ZM185.392 102.36H232.601V55.1521L185.392 102.36Z" fill="#E0E0E0"/>
<path d="M279.775 173.075L308.879 143.971C309.529 143.32 310.045 142.548 310.397 141.699C310.749 140.849 310.93 139.938 310.93 139.019C310.93 138.099 310.749 137.188 310.397 136.339C310.045 135.489 309.529 134.717 308.879 134.067C308.229 133.416 307.457 132.901 306.607 132.549C305.757 132.197 304.847 132.016 303.927 132.016C303.007 132.016 302.097 132.197 301.247 132.549C300.397 132.901 299.625 133.416 298.975 134.067L269.871 163.171L240.767 134.067C239.454 132.753 237.672 132.016 235.815 132.016C233.958 132.016 232.177 132.753 230.863 134.067C229.55 135.38 228.812 137.161 228.812 139.019C228.812 140.876 229.55 142.657 230.863 143.971L259.967 173.075L230.863 202.179C229.55 203.492 228.812 205.273 228.812 207.131C228.812 208.988 229.55 210.769 230.863 212.083C232.177 213.396 233.958 214.134 235.815 214.134C237.672 214.134 239.454 213.396 240.767 212.083L269.871 182.979L298.975 212.083C300.288 213.396 302.07 214.134 303.927 214.134C305.784 214.134 307.566 213.396 308.879 212.083C310.192 210.769 310.93 208.988 310.93 207.131C310.93 205.273 310.192 203.492 308.879 202.179L279.775 173.075Z" fill="#F0F0F0"/>
<path d="M190.888 148.944C189.246 150.584 187.02 151.506 184.699 151.506C182.378 151.506 180.152 150.584 178.51 148.944L150.425 120.85L162.803 108.472L190.888 136.6C192.518 138.241 193.433 140.46 193.433 142.772C193.433 145.085 192.518 147.303 190.888 148.944V148.944Z" fill="#F0F0F0"/>
<path d="M150.421 120.905L162.799 108.527L163.943 109.671C165.129 110.857 165.796 112.466 165.796 114.144C165.796 115.821 165.129 117.43 163.943 118.617L160.511 122.049C159.325 123.235 157.716 123.901 156.038 123.901C154.36 123.901 152.751 123.235 151.565 122.049L150.421 120.905V120.905Z" fill="#E0E0E0"/>
<path d="M72.5118 30.5678C64.0183 39.0699 58.2361 49.8992 55.896 61.6869C53.5559 73.4747 54.7631 85.6915 59.3649 96.7933C63.9667 107.895 71.7565 117.383 81.7498 124.059C91.743 130.734 103.491 134.297 115.509 134.297C127.526 134.297 139.274 130.734 149.268 124.059C159.261 117.383 167.051 107.895 171.653 96.7933C176.254 85.6915 177.461 73.4747 175.121 61.6869C172.781 49.8992 166.999 39.0699 158.506 30.5678C152.861 24.9177 146.159 20.4354 138.781 17.3773C131.403 14.3192 123.495 12.7451 115.509 12.7451C107.522 12.7451 99.6142 14.3192 92.2365 17.3773C84.8588 20.4354 78.1562 24.9177 72.5118 30.5678V30.5678ZM154.996 113.052C147.187 120.861 137.238 126.179 126.407 128.333C115.575 130.487 104.348 129.382 94.1456 125.155C83.9428 120.929 75.2224 113.772 69.087 104.59C62.9516 95.4078 59.6768 84.6124 59.6768 73.5689C59.6768 62.5255 62.9516 51.73 69.087 42.5477C75.2224 33.3654 83.9428 26.2087 94.1456 21.9825C104.348 17.7563 115.575 16.6505 126.407 18.8049C137.238 20.9592 147.187 26.2771 154.996 34.0859C160.181 39.2709 164.294 45.4263 167.1 52.2008C169.906 58.9753 171.351 66.2362 171.351 73.5689C171.351 80.9016 169.906 88.1625 167.1 94.937C164.294 101.712 160.181 107.867 154.996 113.052V113.052Z" fill="#E0E0E0"/>
<path d="M147.455 107.556C147.052 107.555 146.659 107.435 146.325 107.211C145.991 106.988 145.731 106.67 145.577 106.298C145.423 105.926 145.383 105.518 145.461 105.123C145.539 104.728 145.733 104.366 146.016 104.081C154.094 95.9809 158.63 85.0083 158.63 73.5689C158.63 62.1295 154.094 51.1569 146.016 43.0568C145.809 42.8724 145.641 42.6475 145.524 42.3959C145.406 42.1444 145.342 41.8714 145.333 41.5939C145.325 41.3164 145.374 41.0402 145.476 40.7821C145.579 40.5241 145.733 40.2897 145.929 40.0934C146.126 39.8971 146.36 39.743 146.618 39.6405C146.876 39.5381 147.152 39.4894 147.43 39.4976C147.707 39.5058 147.98 39.5706 148.232 39.688C148.483 39.8055 148.708 39.9731 148.893 40.1806C157.733 49.0419 162.698 61.0478 162.698 73.5646C162.698 86.0815 157.733 98.0874 148.893 106.949C148.705 107.14 148.481 107.291 148.234 107.396C147.987 107.5 147.722 107.555 147.455 107.556V107.556Z" fill="#E0E0E0"/>
<path d="M71.5445 86.0537C71.0865 86.0541 70.6418 85.8996 70.2828 85.6152C69.9238 85.3307 69.6715 84.9332 69.5672 84.4872C68.0866 78.217 67.8998 71.7108 69.0184 65.3659C70.1369 59.0211 72.5373 52.971 76.0728 47.5851C76.3702 47.131 76.8358 46.8137 77.3671 46.7029C77.8985 46.5922 78.4521 46.697 78.9061 46.9944C79.3602 47.2918 79.6775 47.7574 79.7883 48.2888C79.899 48.8201 79.7942 49.3737 79.4968 49.8278C76.2598 54.7477 74.059 60.2756 73.0288 66.0741C71.9986 71.8727 72.1606 77.8203 73.5048 83.5542C73.5683 83.8139 73.5797 84.0837 73.5382 84.3478C73.4967 84.612 73.4031 84.8653 73.263 85.093C73.1228 85.3207 72.9389 85.5184 72.7218 85.6745C72.5047 85.8306 72.2587 85.942 71.9982 86.0023C71.8491 86.0347 71.6971 86.0519 71.5445 86.0537V86.0537Z" fill="#E0E0E0"/>
<path d="M83.5628 107.556C83.023 107.555 82.5058 107.34 82.1247 106.957C78.4579 103.304 75.4209 99.0699 73.1367 94.4254C73.0187 94.1859 72.949 93.9256 72.9316 93.6592C72.9142 93.3928 72.9494 93.1256 73.0352 92.8728C73.1211 92.6201 73.2559 92.3867 73.4319 92.186C73.6079 91.9853 73.8218 91.8213 74.0612 91.7033C74.3007 91.5852 74.561 91.5155 74.8274 91.4981C75.0938 91.4807 75.361 91.5159 75.6137 91.6018C75.8665 91.6876 76.0999 91.8224 76.3006 91.9984C76.5012 92.1745 76.6653 92.3883 76.7833 92.6278C78.8775 96.8694 81.6536 100.739 85.0009 104.081C85.3814 104.463 85.5951 104.98 85.5951 105.519C85.5951 106.058 85.3814 106.575 85.0009 106.957C84.6183 107.337 84.1021 107.552 83.5628 107.556V107.556Z" fill="#E0E0E0"/>
<path d="M180.644 227.187L188.646 235.189L170.064 253.771C169.114 254.721 167.825 255.255 166.481 255.255C165.137 255.255 163.848 254.721 162.897 253.771L162.056 252.93C161.106 251.979 160.572 250.69 160.572 249.346C160.572 248.002 161.106 246.713 162.056 245.763L180.638 227.181L180.644 227.187Z" fill="#F0F0F0"/>
<path d="M180.656 227.204L188.646 235.194L188.265 235.575C187.403 236.437 186.234 236.921 185.014 236.921C183.795 236.921 182.626 236.437 181.764 235.575L180.263 234.074C179.401 233.212 178.917 232.043 178.917 230.823C178.917 229.604 179.401 228.435 180.263 227.573L180.644 227.192L180.656 227.204Z" fill="#E0E0E0"/>
<path d="M243.404 183.783L224.657 202.521C222.576 204.751 221.443 207.702 221.497 210.751C221.55 213.801 222.787 216.71 224.944 218.866C227.102 221.021 230.013 222.254 233.062 222.305C236.112 222.355 239.061 221.219 241.289 219.136L248.873 211.56C250.47 201.945 248.527 192.076 243.404 183.783Z" fill="#F0F0F0"/>
<path d="M250.466 201.862C249.929 194.102 247.103 186.676 242.345 180.522C237.587 174.369 231.111 169.764 223.736 167.292C216.361 164.819 208.419 164.589 200.913 166.63C193.407 168.672 186.676 172.894 181.57 178.761C176.463 184.629 173.212 191.879 172.227 199.595C171.242 207.311 172.567 215.146 176.035 222.108C179.502 229.071 184.957 234.849 191.709 238.711C198.461 242.573 206.206 244.346 213.966 243.806C224.367 243.082 234.055 238.257 240.9 230.391C247.745 222.525 251.185 212.264 250.466 201.862ZM175.215 207.101C174.719 199.977 176.347 192.865 179.893 186.666C183.438 180.468 188.743 175.459 195.135 172.275C201.527 169.091 208.72 167.874 215.804 168.778C222.888 169.682 229.545 172.666 234.932 177.354C240.32 182.041 244.197 188.221 246.072 195.112C247.948 202.002 247.738 209.294 245.469 216.066C243.2 222.837 238.974 228.783 233.325 233.153C227.676 237.522 220.859 240.118 213.735 240.613C204.183 241.276 194.759 238.118 187.535 231.834C180.311 225.549 175.88 216.652 175.215 207.101Z" fill="#E0E0E0"/>
<path d="M191.213 227.619C188.184 224.993 185.703 221.795 183.912 218.208C182.121 214.62 181.056 210.715 180.779 206.715C180.759 206.539 180.775 206.36 180.826 206.189C180.878 206.019 180.963 205.861 181.077 205.724C181.191 205.588 181.331 205.476 181.49 205.395C181.648 205.314 181.821 205.266 181.999 205.254C182.176 205.242 182.354 205.266 182.522 205.324C182.69 205.383 182.845 205.475 182.976 205.594C183.108 205.714 183.214 205.859 183.288 206.021C183.362 206.183 183.402 206.358 183.407 206.536C183.931 213.907 187.355 220.77 192.928 225.623C198.501 230.476 205.77 232.924 213.144 232.43C213.491 232.406 213.834 232.521 214.096 232.75C214.359 232.978 214.52 233.302 214.544 233.649C214.567 233.997 214.452 234.339 214.224 234.602C213.995 234.864 213.671 235.025 213.324 235.049C209.331 235.326 205.322 234.813 201.528 233.538C197.734 232.263 194.229 230.251 191.213 227.619V227.619Z" fill="#E0E0E0"/>
<path d="M238.516 197.736C238.321 197.567 238.181 197.343 238.114 197.094C237.083 193.43 235.316 190.015 232.922 187.057C230.527 184.099 227.555 181.66 224.186 179.888C223.892 179.719 223.674 179.442 223.579 179.116C223.483 178.79 223.518 178.439 223.674 178.137C223.831 177.836 224.099 177.607 224.42 177.497C224.742 177.388 225.094 177.408 225.402 177.552C229.089 179.49 232.343 182.16 234.964 185.398C237.585 188.636 239.519 192.374 240.647 196.384C240.694 196.55 240.707 196.724 240.687 196.895C240.666 197.067 240.611 197.233 240.526 197.383C240.441 197.534 240.327 197.666 240.191 197.772C240.054 197.878 239.898 197.956 239.731 198.001C239.523 198.059 239.303 198.065 239.091 198.019C238.879 197.973 238.682 197.876 238.516 197.736V197.736Z" fill="#E0E0E0"/>
<path d="M208.342 176.447C208.08 176.215 207.921 175.889 207.897 175.54C207.873 175.193 207.988 174.851 208.215 174.588C208.443 174.325 208.766 174.162 209.112 174.136C212.451 173.904 215.805 174.219 219.042 175.069C219.211 175.114 219.369 175.191 219.508 175.296C219.646 175.402 219.763 175.534 219.851 175.684C219.939 175.835 219.996 176.001 220.019 176.174C220.043 176.347 220.032 176.523 219.988 176.691C219.943 176.86 219.866 177.018 219.761 177.157C219.655 177.296 219.523 177.412 219.373 177.5C219.222 177.588 219.056 177.645 218.883 177.669C218.71 177.692 218.534 177.681 218.366 177.637C215.412 176.856 212.349 176.566 209.301 176.781C208.95 176.799 208.606 176.679 208.342 176.447V176.447Z" fill="#E0E0E0"/>
<path d="M214 318.911C305.662 318.911 379.97 314.573 379.97 309.221C379.97 303.87 305.662 299.532 214 299.532C122.337 299.532 48.03 303.87 48.03 309.221C48.03 314.573 122.337 318.911 214 318.911Z" fill="#F5F5F5"/>
<path d="M117.974 77.7933C111.075 84.7355 122.802 95.5125 115.055 100.46C121.381 103.636 143.551 107.668 149.295 95.1787C145.109 91.9259 148.02 83.9308 144.159 76.2525C138.381 64.8677 111.075 69.9095 117.974 77.7933Z" fill="#263238"/>
<path d="M118.599 77.6135C116.45 77.254 109.183 80.8663 114.593 90.5648C118.95 98.4058 115.321 98.9622 115.321 98.9622C115.321 98.9622 119.601 99.082 117.033 93.2527C114.31 87.0295 113.035 80.5753 118.599 77.6135Z" fill="#263238"/>
<path d="M169.488 139.194C169.223 138.71 168.779 138.349 168.251 138.188C167.722 138.028 167.152 138.082 166.663 138.338L166.158 138.604C165.996 138.689 165.687 138.895 165.439 139.04C165.191 139.186 164.9 139.348 164.626 139.485C164.086 139.757 163.529 139.991 162.957 140.187C161.899 140.57 160.786 140.781 159.661 140.812C158.628 140.824 157.6 140.659 156.622 140.324C156.001 140.094 155.403 139.807 154.833 139.468C154.097 137.842 153.395 136.198 152.796 134.503C152.069 132.526 151.427 130.506 150.862 128.46C150.297 126.414 149.8 124.343 149.389 122.262C149.175 121.227 148.987 120.182 148.816 119.147L148.585 117.597C148.508 117.101 148.439 116.536 148.396 116.142V115.971C148.283 114.836 147.723 113.792 146.84 113.07C145.957 112.347 144.823 112.005 143.688 112.119C142.553 112.232 141.51 112.792 140.787 113.675C140.065 114.558 139.723 115.692 139.836 116.827C139.896 117.554 139.948 118.111 140.025 118.719C140.102 119.326 140.187 119.908 140.273 120.499C140.461 121.68 140.675 122.845 140.915 124.009C141.391 126.322 141.991 128.608 142.712 130.857C143.046 131.987 143.457 133.099 143.842 134.221C144.228 135.342 144.698 136.438 145.186 137.525C146.12 139.722 147.181 141.862 148.362 143.936L148.465 144.125C148.772 144.682 149.232 145.139 149.792 145.443C151.41 146.325 153.158 146.943 154.97 147.275C156.832 147.604 158.74 147.563 160.586 147.155C163.191 146.551 165.584 145.252 167.511 143.397C167.827 143.106 168.127 142.806 168.367 142.49C168.606 142.173 168.897 141.873 169.223 141.428C169.474 141.119 169.632 140.745 169.679 140.35C169.726 139.954 169.66 139.554 169.488 139.194Z" fill="#FF8B7B"/>
<path d="M175.181 131.182H174.932C174.113 131.165 173.301 131.336 172.558 131.684C171.816 132.031 171.164 132.545 170.652 133.185L166.518 138.372V141.916C169.839 143.234 174.051 139.682 174.051 139.682L176.182 139.143C176.899 138.964 177.525 138.525 177.938 137.912C178.35 137.298 178.521 136.553 178.416 135.822L178.108 133.741C178.008 133.035 177.657 132.388 177.12 131.918C176.582 131.448 175.894 131.187 175.181 131.182V131.182Z" fill="#FF8B7B"/>
<path d="M148.285 111.177C151.05 114.019 151.221 122.502 151.221 122.502L140.162 131.405C140.162 131.405 135.616 118.821 138.133 114.379C140.264 110.612 144.758 107.556 148.285 111.177Z" fill="#0099FF"/>
<g opacity="0.2">
<path opacity="0.2" d="M148.285 111.177C151.05 114.019 151.221 122.502 151.221 122.502L140.162 131.405C140.162 131.405 135.616 118.821 138.133 114.379C140.264 110.612 144.758 107.556 148.285 111.177Z" fill="white"/>
</g>
<path d="M129.984 301.886L136.095 302.553L136.934 285.947L130.823 285.271L129.984 301.886Z" fill="#FF8B7B"/>
<path d="M137.097 298.564H129.915C129.77 298.56 129.63 298.611 129.522 298.709C129.415 298.806 129.351 298.942 129.342 299.086L128.862 305.874C128.862 306.23 129.001 306.571 129.249 306.825C129.497 307.079 129.834 307.227 130.189 307.236C133.219 307.236 133.254 307.236 137.037 307.236H147.232C150.365 307.236 150.374 304.06 149.021 303.769C142.935 302.485 140.564 300.704 138.415 299.009C138.038 298.718 137.574 298.562 137.097 298.564V298.564Z" fill="#263238"/>
<path opacity="0.2" d="M136.934 285.955L136.498 294.515H130.352L130.823 285.279L136.934 285.955Z" fill="black"/>
<path d="M140.23 153.455C140.23 153.455 145.52 197.736 145.52 217.424C141.351 244.816 137.816 292.889 137.816 292.889L129.359 292.666C129.359 292.666 125.515 240.313 129.076 217.706C124.514 197.454 118.881 150.716 118.881 150.716L140.23 153.455Z" fill="#263238"/>
<path opacity="0.2" d="M123.923 165.782C122.915 166.225 121.937 166.734 120.996 167.305C122.16 176.045 123.692 187.045 125.318 197.197C128.092 188.842 126.594 170.472 123.923 165.782Z" fill="black"/>
<path d="M63.7979 286.469L68.8397 289.987L77.5367 275.812L72.4948 272.294L63.7979 286.469Z" fill="#FF8B7B"/>
<path d="M70.1151 288.13L65.8351 282.369C65.7536 282.251 65.629 282.169 65.4881 282.142C65.3473 282.115 65.2014 282.144 65.0818 282.223L59.3466 285.904C59.0605 286.115 58.8687 286.429 58.8126 286.78C58.7565 287.131 58.8407 287.489 59.047 287.779C60.836 290.218 60.8703 290.235 63.1215 293.266C64.5168 295.123 67.2988 298.864 69.2163 301.44C71.1337 304.017 73.6418 302.065 73.0597 300.798C70.4917 295.157 70.4917 292.238 70.5431 289.465C70.5518 288.985 70.4013 288.515 70.1151 288.13V288.13Z" fill="#263238"/>
<path opacity="0.2" d="M77.5281 275.812L73.0513 283.122L67.6499 280.177L72.4949 272.294L77.5281 275.812Z" fill="black"/>
<path d="M94.7252 292.41C90.351 292.41 81.2432 292.41 81.0891 285.972C80.9693 280.922 87.2181 278.825 92.6109 278.568C93.2084 278.539 93.8057 278.629 94.3687 278.831C94.9317 279.033 95.4494 279.344 95.8921 279.746C96.3349 280.148 96.6941 280.634 96.9492 281.175C97.2043 281.716 97.3502 282.302 97.3788 282.899V283.242C103.491 282.951 107.445 281.615 108.892 279.338C112.153 274.202 105.905 260.943 99.8697 248.129C92.7649 233.055 84.7185 215.977 84.5645 199.619C84.5588 199.021 84.671 198.428 84.8947 197.873C85.1183 197.319 85.449 196.813 85.8679 196.387C86.2868 195.96 86.7857 195.62 87.3361 195.385C87.8865 195.151 88.4775 195.028 89.0756 195.022V195.022C90.2753 195.025 91.4259 195.499 92.2782 196.344C93.1305 197.188 93.616 198.334 93.6295 199.534C93.7665 213.897 101.333 230.016 108.062 244.242C115.766 260.661 122.485 274.844 116.536 284.218C113.086 289.73 105.939 292.41 94.7252 292.41Z" fill="#0099FF"/>
<path d="M133.459 152.582C133.459 152.582 118.856 203.189 111.725 221.541C97.9095 245.561 74.9858 282.317 74.9858 282.317L67.667 278.037C67.667 278.037 84.787 235.58 96.3002 215.806C99.3904 195.262 111.075 149.672 111.075 149.672L133.459 152.582Z" fill="#263238"/>
<path d="M71.4333 292.264C71.7237 292.745 72.1712 293.111 72.7002 293.3C72.855 293.337 73.0171 293.33 73.1684 293.28C73.3196 293.231 73.4539 293.139 73.5562 293.017C73.6273 292.952 73.6816 292.87 73.7144 292.779C73.7472 292.689 73.7575 292.591 73.7445 292.495C73.6418 291.468 70.9882 290.133 70.4575 289.876C70.4265 289.863 70.392 289.862 70.3605 289.873C70.329 289.884 70.3026 289.907 70.2863 289.936C70.2656 289.968 70.2546 290.005 70.2546 290.043C70.2546 290.081 70.2656 290.118 70.2863 290.15C70.6006 290.889 70.9847 291.597 71.4333 292.264V292.264ZM73.2566 292.264C73.3319 292.358 73.382 292.47 73.4021 292.589C73.4062 292.623 73.4021 292.656 73.3902 292.688C73.3783 292.719 73.3588 292.747 73.3336 292.769C73.2646 292.848 73.1759 292.907 73.0766 292.94C72.9773 292.973 72.8711 292.979 72.7687 292.957C72.2037 292.846 71.459 291.93 70.7399 290.484C71.6722 290.918 72.5234 291.509 73.2566 292.23V292.264Z" fill="#0099FF"/>
<path d="M70.2436 290.184L70.2949 290.227C71.1509 290.698 73.3765 291.083 73.8645 290.372C73.9464 290.243 73.9862 290.091 73.9785 289.938C73.9709 289.784 73.9161 289.637 73.8216 289.516C72.9656 288.001 70.3977 289.782 70.2864 289.859C70.2608 289.879 70.2405 289.905 70.2271 289.935C70.2138 289.965 70.2076 289.997 70.2093 290.03C70.2059 290.084 70.2177 290.137 70.2436 290.184ZM73.4964 289.688C73.5213 289.717 73.5442 289.749 73.5649 289.782C73.659 289.944 73.6761 290.064 73.6248 290.133C73.3423 290.544 71.6988 290.398 70.74 290.021C71.3821 289.636 72.8801 288.857 73.4964 289.688Z" fill="#0099FF"/>
<path d="M141.24 299.977C141.801 300.028 142.363 299.886 142.832 299.574C142.951 299.47 143.039 299.335 143.086 299.184C143.133 299.033 143.137 298.872 143.098 298.718C143.085 298.622 143.051 298.529 142.998 298.447C142.944 298.366 142.873 298.297 142.789 298.248C141.933 297.725 139.254 299.052 138.732 299.326C138.703 299.342 138.68 299.368 138.667 299.399C138.655 299.431 138.653 299.465 138.663 299.497C138.677 299.533 138.698 299.565 138.727 299.59C138.755 299.616 138.789 299.634 138.826 299.643C139.617 299.836 140.426 299.948 141.24 299.977V299.977ZM142.301 298.496C142.423 298.488 142.545 298.515 142.652 298.573C142.695 298.573 142.738 298.633 142.755 298.735C142.778 298.838 142.772 298.944 142.739 299.044C142.706 299.143 142.646 299.232 142.567 299.3C142.147 299.686 140.966 299.737 139.374 299.454C140.274 298.972 141.249 298.648 142.259 298.496H142.301Z" fill="#0099FF"/>
<path d="M138.826 299.686H138.886C139.742 299.292 141.411 297.725 141.138 296.912C141.08 296.778 140.985 296.663 140.863 296.582C140.742 296.502 140.599 296.459 140.453 296.459C138.741 296.262 138.621 299.36 138.612 299.489C138.613 299.523 138.621 299.556 138.638 299.586C138.654 299.616 138.678 299.641 138.706 299.66C138.743 299.68 138.785 299.689 138.826 299.686V299.686ZM140.367 296.775H140.487C140.667 296.775 140.778 296.852 140.804 296.938C140.966 297.409 139.871 298.65 138.989 299.189C139.066 298.444 139.34 296.775 140.384 296.775H140.367Z" fill="#0099FF"/>
<path d="M111.075 149.714L140.23 153.447C146.804 131.31 148.97 120.619 149.552 115.474C149.706 114.181 149.404 112.875 148.697 111.781C147.991 110.687 146.925 109.874 145.683 109.482C143.971 108.935 141.762 108.284 139.571 107.77C138.826 107.574 138.064 107.394 137.32 107.223C132.955 106.337 128.532 105.765 124.086 105.511C123.427 105.451 122.776 105.416 122.117 105.382C120.825 105.314 119.549 105.297 118.385 105.297C117.511 105.296 116.647 105.476 115.847 105.828C115.047 106.179 114.329 106.694 113.739 107.338C113.148 107.982 112.699 108.742 112.418 109.57C112.138 110.397 112.033 111.274 112.11 112.145C112.342 114.713 112.521 117.101 112.658 119.292C112.984 124.428 113.086 128.537 113.009 132.132C112.834 138.035 112.187 143.915 111.075 149.714V149.714Z" fill="#0099FF"/>
<g opacity="0.3">
<path opacity="0.3" d="M111.075 149.714L140.23 153.447C146.804 131.31 148.97 120.619 149.552 115.474C149.706 114.181 149.404 112.875 148.697 111.781C147.991 110.687 146.925 109.874 145.683 109.482C143.971 108.935 141.762 108.284 139.571 107.77C138.826 107.574 138.064 107.394 137.32 107.223C132.955 106.337 128.532 105.765 124.086 105.511C123.427 105.451 122.776 105.416 122.117 105.382C120.825 105.314 119.549 105.297 118.385 105.297C117.511 105.296 116.647 105.476 115.847 105.828C115.047 106.179 114.329 106.694 113.739 107.338C113.148 107.982 112.699 108.742 112.418 109.57C112.138 110.397 112.033 111.274 112.11 112.145C112.342 114.713 112.521 117.101 112.658 119.292C112.984 124.428 113.086 128.537 113.009 132.132C112.834 138.035 112.187 143.915 111.075 149.714V149.714Z" fill="white"/>
</g>
<path opacity="0.3" d="M112.992 132.098C116.844 127.116 118.239 121.415 116.99 118.274L112.641 119.249C112.992 124.368 113.086 128.494 112.992 132.098Z" fill="#0099FF"/>
<path d="M139.571 107.719C138.818 107.522 138.064 107.342 137.32 107.171C132.951 106.29 128.526 105.718 124.077 105.459C123.418 105.408 122.768 105.374 122.117 105.339L120.979 105.288L121.835 106.786C121.954 106.991 124.865 111.751 132.107 116.87L133.656 117.948L135.145 116.81C136.58 115.781 137.752 114.429 138.567 112.863C139.382 111.297 139.816 109.561 139.836 107.796L139.571 107.719Z" fill="white"/>
<path d="M127.296 96.6595C127.022 100.263 126.175 103.936 124.077 105.476C124.077 105.476 126.748 109.919 133.665 114.772C137.996 111.46 137.32 107.171 137.32 107.171C132.714 105.459 133.04 102.266 134.983 97.1731L131.388 95.2386C131.077 94.8968 130.674 94.6537 130.226 94.5396C129.779 94.4255 129.308 94.4454 128.872 94.5968C128.436 94.7482 128.054 95.0245 127.774 95.3912C127.494 95.758 127.328 96.199 127.296 96.6595V96.6595Z" fill="#FF8B7B"/>
<path opacity="0.2" d="M131.388 95.2386C131.096 94.9168 130.722 94.6818 130.305 94.5596C129.889 94.4374 129.446 94.4327 129.027 94.5461C128.608 94.6595 128.229 94.8865 127.931 95.2021C127.633 95.5176 127.428 95.9095 127.339 96.3343C128.704 99.0878 130.907 101.338 133.63 102.763C133.728 100.832 134.183 98.9369 134.974 97.1732L131.388 95.2386Z" fill="black"/>
<path d="M121.698 85.3603C123.487 92.3196 124.095 95.2985 128.349 98.2003C134.743 102.6 142.901 98.8851 143.218 91.5407C143.517 84.9238 140.547 74.6518 133.117 73.1795C131.477 72.8442 129.778 72.9346 128.182 73.4421C126.587 73.9497 125.148 74.8574 124.003 76.0788C122.858 77.3002 122.045 78.7945 121.642 80.4193C121.238 82.0441 121.257 83.7451 121.698 85.3603V85.3603Z" fill="#FF8B7B"/>
<path d="M139.408 74.6176C135.217 78.3435 130.245 81.084 124.856 82.6383C124.856 82.6383 130.172 93.946 120.225 91.0956C117.34 81.4656 120.225 76.4665 122.793 74.1125C130.703 71.5445 136.267 70.6885 139.408 74.6176Z" fill="#263238"/>
<path d="M121.364 92.2169C121.947 93.4778 123.006 94.4565 124.308 94.939C126.02 95.5553 127.039 94.083 126.671 92.371C126.337 90.8388 125.036 88.6645 123.247 88.7758C122.86 88.8088 122.487 88.9371 122.162 89.1492C121.837 89.3612 121.569 89.6505 121.382 89.9912C121.196 90.3319 121.097 90.7134 121.093 91.1017C121.09 91.4901 121.183 91.8732 121.364 92.2169V92.2169Z" fill="#FF8B7B"/>
<path d="M110.861 147.951L109.209 150.391C109.08 150.579 109.294 150.819 109.628 150.861L140.204 154.782C140.47 154.782 140.701 154.713 140.744 154.551L141.343 151.983C141.343 151.803 141.172 151.623 140.889 151.58L111.357 147.797C111.268 147.776 111.175 147.779 111.088 147.807C111.001 147.834 110.922 147.884 110.861 147.951V147.951Z" fill="#0099FF"/>
<path d="M114.396 151.76L113.608 151.658C113.454 151.658 113.343 151.538 113.369 151.444L114.173 148.097C114.204 148.04 114.253 147.996 114.312 147.971C114.371 147.946 114.437 147.942 114.499 147.96L115.295 148.062C115.449 148.062 115.56 148.174 115.534 148.276L114.73 151.615C114.704 151.717 114.559 151.777 114.396 151.76Z" fill="#263238"/>
<path d="M137.944 154.773L137.157 154.679C137.003 154.679 136.892 154.559 136.917 154.457L137.722 151.118C137.722 151.024 137.893 150.956 138.047 150.973L138.843 151.075C138.997 151.075 139.109 151.195 139.083 151.289L138.278 154.636C138.253 154.731 138.107 154.799 137.944 154.773Z" fill="#263238"/>
<path d="M126.174 153.267L125.387 153.164C125.224 153.164 125.113 153.053 125.139 152.95L125.943 149.612C125.943 149.509 126.115 149.449 126.277 149.466L127.065 149.569C127.219 149.569 127.33 149.689 127.313 149.783L126.5 153.13C126.483 153.224 126.329 153.284 126.174 153.267Z" fill="#263238"/>
<path d="M133.622 85.0607C133.724 85.6343 134.118 86.0451 134.478 85.9681C134.837 85.8911 135.068 85.3775 134.957 84.804C134.846 84.2304 134.452 83.8195 134.101 83.8966C133.75 83.9736 133.536 84.4872 133.622 85.0607Z" fill="#263238"/>
<path d="M140.093 83.8196C140.204 84.3931 140.598 84.7954 140.949 84.7269C141.3 84.6584 141.54 84.1277 141.429 83.5542C141.317 82.9807 140.923 82.5784 140.573 82.6468C140.222 82.7153 139.99 83.246 140.093 83.8196Z" fill="#263238"/>
<path d="M140.384 82.7153L141.685 82.0476C141.685 82.0476 141.24 83.2632 140.384 82.7153Z" fill="#263238"/>
<path d="M138.381 85.1035C139.146 86.3094 140.07 87.4064 141.129 88.3649C140.878 88.6314 140.572 88.8393 140.231 88.974C139.891 89.1086 139.525 89.1666 139.16 89.1438L138.381 85.1035Z" fill="#FF5652"/>
<path d="M134.341 91.455C134.315 91.4849 134.3 91.5229 134.299 91.5624C134.298 91.6019 134.311 91.6405 134.335 91.6717C134.359 91.703 134.393 91.7249 134.432 91.7338C134.47 91.7426 134.511 91.7379 134.546 91.7204C135.193 91.3905 135.909 91.2185 136.635 91.2185C137.361 91.2185 138.077 91.3905 138.723 91.7204C138.762 91.7425 138.808 91.7486 138.851 91.7374C138.894 91.7262 138.931 91.6986 138.955 91.6605C138.978 91.6215 138.986 91.575 138.976 91.5305C138.967 91.4861 138.94 91.4469 138.903 91.4208C138.205 91.0632 137.432 90.8768 136.648 90.8768C135.863 90.8768 135.09 91.0632 134.392 91.4208C134.392 91.4208 134.392 91.4379 134.341 91.455Z" fill="#263238"/>
<path d="M131.388 83.2974C131.44 83.2648 131.482 83.2171 131.507 83.1604C131.686 82.7703 131.954 82.428 132.291 82.1617C132.627 81.8953 133.021 81.7125 133.442 81.6282C133.487 81.6229 133.531 81.6087 133.57 81.5864C133.61 81.5641 133.645 81.5342 133.672 81.4983C133.7 81.4625 133.721 81.4214 133.733 81.3776C133.745 81.3338 133.748 81.288 133.742 81.243C133.737 81.1982 133.724 81.1548 133.703 81.1153C133.681 81.0758 133.652 81.041 133.617 81.013C133.582 80.985 133.541 80.9644 133.498 80.9525C133.455 80.9405 133.41 80.9374 133.365 80.9434C132.83 81.0433 132.326 81.2694 131.896 81.6029C131.466 81.9364 131.121 82.3676 130.891 82.8608C130.858 82.9283 130.848 83.0049 130.863 83.0788C130.877 83.1526 130.916 83.2195 130.972 83.2692C131.029 83.3189 131.1 83.3486 131.175 83.3537C131.25 83.3588 131.325 83.339 131.388 83.2974V83.2974Z" fill="#263238"/>
<path d="M142.019 78.9575L142.062 78.9147C142.088 78.8777 142.106 78.8358 142.116 78.7916C142.126 78.7474 142.127 78.7017 142.119 78.6571C142.111 78.6125 142.094 78.57 142.07 78.5319C142.045 78.4938 142.013 78.461 141.976 78.4353C141.534 78.1172 141.022 77.9094 140.483 77.829C139.944 77.7486 139.393 77.798 138.877 77.9731C138.795 78.009 138.73 78.0752 138.694 78.158C138.659 78.2409 138.658 78.334 138.689 78.4182C138.723 78.5021 138.789 78.569 138.873 78.6043C138.956 78.6396 139.05 78.6404 139.134 78.6065C139.544 78.4722 139.98 78.4378 140.406 78.5063C140.832 78.5748 141.235 78.7442 141.582 79.0003C141.648 79.047 141.728 79.0685 141.809 79.0606C141.889 79.0528 141.964 79.0161 142.019 78.9575V78.9575Z" fill="#263238"/>
<path d="M133.938 83.9565L135.24 83.2974C135.24 83.2974 134.735 84.5043 133.938 83.9565Z" fill="#263238"/>
<path d="M89.1183 204.13C87.9179 204.13 86.766 203.656 85.9132 202.812C85.0604 201.967 84.5756 200.82 84.5644 199.619C84.4445 187.464 88.4934 177.201 96.2744 169.942C105.853 161.005 120.79 156.853 138.355 158.24C150.673 159.216 158.574 156.22 167.716 152.736C169.223 152.171 170.738 151.589 172.296 151.024C173.431 150.611 174.684 150.666 175.779 151.176C176.873 151.687 177.721 152.611 178.134 153.746C178.547 154.881 178.492 156.134 177.982 157.229C177.471 158.324 176.547 159.171 175.412 159.584C173.897 160.132 172.424 160.697 170.96 161.253C161.639 164.797 152.009 168.452 137.636 167.322C122.656 166.132 110.176 169.428 102.489 176.601C96.497 182.148 93.578 189.861 93.6722 199.534C93.6778 200.132 93.5656 200.725 93.342 201.28C93.1183 201.834 92.7876 202.339 92.3687 202.766C91.9498 203.193 91.4509 203.533 90.9006 203.767C90.3502 204.001 89.7591 204.125 89.1611 204.13H89.1183Z" fill="#0099FF"/>
<path d="M194.436 166.014L176.119 172.725C174.59 173.284 172.902 173.214 171.425 172.529C169.948 171.845 168.804 170.601 168.244 169.073L160.68 148.424C160.12 146.896 160.19 145.207 160.875 143.731C161.56 142.254 162.803 141.11 164.332 140.55L182.649 133.839L194.427 165.99L194.436 166.014Z" fill="#0099FF"/>
<path opacity="0.7" d="M194.436 166.014L176.119 172.725C174.59 173.284 172.902 173.214 171.425 172.529C169.948 171.845 168.804 170.601 168.244 169.073L160.68 148.424C160.12 146.896 160.19 145.207 160.875 143.731C161.56 142.254 162.803 141.11 164.332 140.55L182.649 133.839L194.427 165.99L194.436 166.014Z" fill="white"/>
<path opacity="0.2" d="M174.487 136.823L182.662 133.836L194.44 166.004L186.266 169C185.721 168.474 185.306 167.829 185.05 167.117L174.778 139.049C174.509 138.34 174.41 137.577 174.487 136.823V136.823Z" fill="#0099FF"/>
<path d="M201.02 141.848L200.216 142.143L202.177 147.496L202.981 147.201L201.02 141.848Z" fill="#0099FF"/>
<path d="M198.977 138.809L196.093 130.917C195.598 129.578 194.705 128.424 193.534 127.608C192.363 126.792 190.971 126.355 189.544 126.354C188.732 126.352 187.927 126.494 187.164 126.774L181.96 128.682L181.66 127.878L186.873 125.969C187.729 125.655 188.633 125.496 189.544 125.498C191.147 125.502 192.711 125.996 194.025 126.914C195.34 127.832 196.342 129.13 196.897 130.634L199.782 138.526L198.977 138.809Z" fill="#0099FF"/>
<path d="M194.578 168.319L202.223 165.555C204.72 164.651 206.012 161.894 205.109 159.397L194.733 130.711C193.83 128.214 191.073 126.922 188.576 127.825L180.932 130.59C178.434 131.493 177.142 134.25 178.045 136.748L188.421 165.433C189.324 167.93 192.081 169.223 194.578 168.319Z" fill="#0099FF"/>
<path d="M190.203 139.417C190.378 139.894 190.407 140.412 190.287 140.906C190.167 141.4 189.903 141.847 189.528 142.191C189.154 142.534 188.686 142.759 188.184 142.837C187.681 142.914 187.167 142.841 186.707 142.626C186.246 142.412 185.859 142.065 185.596 141.63C185.332 141.196 185.204 140.693 185.226 140.185C185.249 139.678 185.421 139.188 185.722 138.778C186.023 138.369 186.439 138.058 186.916 137.885C187.556 137.653 188.26 137.684 188.877 137.971C189.493 138.258 189.97 138.778 190.203 139.417Z" fill="#263238"/>
<path d="M196.597 156.871C196.771 157.348 196.8 157.865 196.679 158.359C196.559 158.852 196.295 159.299 195.921 159.642C195.547 159.985 195.08 160.21 194.578 160.288C194.076 160.365 193.562 160.293 193.102 160.078C192.642 159.864 192.255 159.519 191.991 159.085C191.727 158.651 191.598 158.149 191.619 157.642C191.64 157.134 191.812 156.645 192.111 156.235C192.411 155.825 192.825 155.513 193.302 155.338C193.619 155.222 193.956 155.17 194.293 155.184C194.63 155.198 194.961 155.279 195.267 155.421C195.573 155.564 195.848 155.765 196.077 156.013C196.305 156.262 196.482 156.553 196.597 156.871V156.871Z" fill="#263238"/>
<path d="M121.552 154.808L121.484 154.731C120.148 153.395 118.736 151.94 117.461 150.451C116.185 148.961 114.935 147.472 113.797 145.931C112.681 144.428 111.665 142.852 110.758 141.214C110.109 140.043 109.556 138.821 109.106 137.559C109.62 135.847 110.167 134.135 110.818 132.492C111.563 130.514 112.402 128.571 113.317 126.654C114.233 124.736 115.209 122.853 116.262 121.013C116.776 120.088 117.315 119.172 117.871 118.274L118.727 116.955C118.993 116.527 119.309 116.099 119.532 115.731L119.626 115.594C120.235 114.667 120.459 113.539 120.253 112.449C120.046 111.359 119.424 110.392 118.519 109.752C117.613 109.111 116.494 108.848 115.397 109.016C114.301 109.185 113.313 109.772 112.641 110.655C112.213 111.237 111.888 111.699 111.546 112.205C111.203 112.71 110.895 113.215 110.57 113.72C109.945 114.73 109.337 115.748 108.755 116.784C107.597 118.85 106.548 120.976 105.613 123.153C105.134 124.231 104.757 125.336 104.27 126.44C103.782 127.544 103.456 128.665 103.114 129.812C102.387 132.085 101.79 134.397 101.325 136.737V136.934C101.192 137.559 101.237 138.208 101.453 138.809C102.283 141.004 103.384 143.086 104.732 145.006C106.001 146.829 107.415 148.547 108.96 150.142C110.466 151.679 112.064 153.123 113.745 154.465C115.426 155.805 117.19 157.038 119.027 158.155C119.473 158.415 119.999 158.505 120.506 158.406C121.013 158.306 121.466 158.026 121.781 157.616C122.096 157.207 122.251 156.697 122.217 156.181C122.183 155.666 121.961 155.18 121.595 154.816L121.552 154.808Z" fill="#FF8B7B"/>
<path d="M131.499 159.062L131.388 158.839C131.032 158.098 130.509 157.449 129.86 156.943C129.211 156.438 128.453 156.091 127.647 155.929L121.15 154.611L117.974 156.194C118.317 159.755 123.401 161.887 123.401 161.887L124.848 163.539C125.336 164.093 126.011 164.447 126.744 164.534C127.477 164.621 128.216 164.434 128.82 164.01L130.532 162.786C131.107 162.379 131.52 161.783 131.697 161.101C131.874 160.419 131.804 159.697 131.499 159.062V159.062Z" fill="#FF8B7B"/>
<path d="M115.723 105.844C112.119 107.496 108.284 113.215 108.284 113.215L115.988 127.638C115.988 127.638 124.745 117.546 124.009 112.496C123.41 108.207 120.311 103.739 115.723 105.844Z" fill="#0099FF"/>
<g opacity="0.3">
<path opacity="0.3" d="M115.723 105.844C112.119 107.496 108.284 113.215 108.284 113.215L115.988 127.638C115.988 127.638 124.745 117.546 124.009 112.496C123.41 108.207 120.311 103.739 115.723 105.844Z" fill="white"/>
</g>
<path d="M362.336 294.832C354.795 294.832 347.382 293.283 343.787 288.592C326.77 266.336 326.924 221.567 327.069 178.245C327.155 154.919 328.995 132.877 326.402 115.757C324.878 105.665 319.554 98.7396 314.178 95.1615C306.2 89.8886 295.243 92.7219 290.561 93.9289C289.978 94.0919 289.368 94.1368 288.767 94.0612C288.166 93.9856 287.586 93.7909 287.062 93.4886C286.537 93.1862 286.078 92.7822 285.711 92.3002C285.344 91.8183 285.078 91.268 284.926 90.6816C284.775 90.0953 284.742 89.4846 284.829 88.8854C284.917 88.2862 285.123 87.7104 285.435 87.1918C285.748 86.6731 286.161 86.2221 286.65 85.865C287.139 85.5079 287.695 85.2519 288.284 85.1121C294.13 83.597 307.843 80.0617 319.194 87.5603C326.855 92.6192 333.481 101.65 335.407 114.396C338.103 132.201 336.263 154.568 336.177 178.245C336.032 220.043 335.886 263.263 351.02 283.028C352.244 284.62 357.012 286.05 364.93 285.639C365.632 285.639 366.317 285.562 366.993 285.502C366.687 284.882 366.528 284.199 366.531 283.507C366.531 282.299 367.011 281.141 367.865 280.287C368.719 279.433 369.877 278.953 371.085 278.953C381.04 278.953 386.279 279.809 387.289 284.363C387.58 285.673 387.734 288.96 382.923 291.211C379.328 292.898 370.751 294.832 362.336 294.832Z" fill="#0099FF"/>
<path d="M262.681 298.761L253.393 295.106L258.29 279.005L267.586 282.651L262.681 298.761Z" fill="#FFC3BD"/>
<path d="M253.171 294.122L263.648 298.23C263.781 298.284 263.892 298.381 263.963 298.505C264.034 298.629 264.062 298.774 264.042 298.915L263.015 305.438C262.988 305.596 262.926 305.745 262.834 305.876C262.742 306.007 262.621 306.115 262.482 306.193C262.342 306.271 262.187 306.317 262.027 306.327C261.868 306.337 261.708 306.311 261.56 306.251C258.932 305.164 254.814 303.366 251.484 302.057C249.439 301.252 245.544 299.968 242.71 298.855C239.877 297.742 240.613 294.798 241.854 295.003C247.495 295.911 249.653 294.943 251.904 294.104C252.313 293.948 252.766 293.954 253.171 294.122V294.122Z" fill="#263238"/>
<path opacity="0.2" d="M267.586 282.66L258.29 279.005L255.764 287.308L265.061 290.963L267.586 282.66Z" fill="black"/>
<path d="M279.202 158.026C279.202 158.026 270.796 199.576 267.586 220.069C263.973 243.036 254.429 284.988 254.429 284.988L266.781 289.842C266.781 289.842 284.423 246.888 286.88 226.087C294.284 209.181 309.008 159.43 309.008 159.43L279.202 158.026Z" fill="#0099FF"/>
<path d="M253.83 285.057L267.389 290.389L269.709 286.281L254.549 279.998L253.83 285.057Z" fill="#263238"/>
<path d="M250.509 294.301C250.036 294.154 249.626 293.853 249.344 293.445C249.266 293.295 249.226 293.127 249.226 292.957C249.226 292.788 249.266 292.62 249.344 292.47C249.379 292.377 249.439 292.295 249.518 292.235C249.597 292.174 249.691 292.137 249.79 292.127C250.688 292.033 252.357 294.224 252.52 294.481C252.539 294.509 252.548 294.542 252.548 294.575C252.548 294.609 252.539 294.641 252.52 294.669C252.502 294.698 252.476 294.72 252.446 294.734C252.416 294.747 252.382 294.752 252.349 294.746C251.721 294.665 251.104 294.516 250.509 294.301V294.301ZM250.055 292.512C249.986 292.478 249.909 292.464 249.832 292.47C249.781 292.47 249.721 292.47 249.661 292.615C249.604 292.717 249.574 292.832 249.574 292.949C249.574 293.066 249.604 293.181 249.661 293.283C249.909 293.736 250.765 294.139 252.007 294.344C251.485 293.609 250.822 292.986 250.055 292.512V292.512Z" fill="#0099FF"/>
<path d="M252.332 294.738C252.304 294.729 252.28 294.711 252.263 294.687C251.715 294.036 250.945 292.024 251.407 291.331C251.479 291.223 251.585 291.144 251.708 291.105C251.831 291.066 251.963 291.07 252.084 291.117C252.211 291.149 252.33 291.208 252.433 291.289C252.536 291.37 252.621 291.472 252.683 291.588C253.213 292.538 252.614 294.541 252.589 294.627C252.578 294.657 252.56 294.684 252.536 294.705C252.512 294.726 252.483 294.741 252.452 294.746C252.433 294.756 252.412 294.76 252.391 294.758C252.37 294.757 252.349 294.75 252.332 294.738V294.738ZM252.041 291.468H251.972C251.75 291.417 251.698 291.468 251.673 291.545C251.416 291.956 251.835 293.411 252.323 294.207C252.567 293.415 252.567 292.568 252.323 291.776C252.269 291.643 252.169 291.533 252.041 291.468V291.468Z" fill="#0099FF"/>
<path opacity="0.2" d="M297.323 183.184C292.666 188.953 290.826 203.66 290.843 215.917C293.985 207.263 297.588 196.272 300.756 186.291L297.323 183.184Z" fill="black"/>
<path d="M318.578 300.31H308.597L307.27 283.533H317.251L318.578 300.31Z" fill="#FFC3BD"/>
<path d="M308.032 299.472H319.288C319.432 299.47 319.572 299.519 319.685 299.61C319.797 299.7 319.875 299.827 319.904 299.968L321.334 306.405C321.367 306.562 321.365 306.725 321.327 306.881C321.289 307.037 321.216 307.183 321.114 307.307C321.012 307.431 320.884 307.531 320.738 307.598C320.592 307.666 320.433 307.7 320.272 307.698C317.431 307.646 312.954 307.475 309.376 307.475C307.167 307.475 303.075 307.706 300.037 307.706C296.998 307.706 296.613 304.702 297.837 304.428C303.426 303.204 305.087 301.526 306.867 299.917C307.188 299.632 307.602 299.473 308.032 299.472V299.472Z" fill="#263238"/>
<path opacity="0.2" d="M317.251 283.533H307.261L307.955 292.187H317.944L317.251 283.533Z" fill="black"/>
<path d="M291.288 158.548C291.288 158.548 296.818 204.849 297.982 221.516C299.6 244.713 305.857 290.509 305.857 290.509H319.125C319.125 290.509 320.546 243.737 318.15 222.928C321.454 204.772 320.409 159.944 320.409 159.944L291.288 158.548Z" fill="#0099FF"/>
<path d="M305.327 290.792H319.896L320.555 286.127L304.146 285.818L305.327 290.792Z" fill="#263238"/>
<path d="M305.592 300.61C305.099 300.647 304.608 300.517 304.197 300.242C304.069 300.13 303.97 299.989 303.908 299.832C303.845 299.674 303.821 299.504 303.837 299.335C303.837 299.234 303.865 299.135 303.918 299.048C303.971 298.962 304.047 298.893 304.137 298.847C304.941 298.436 307.278 299.874 307.561 300.037C307.591 300.053 307.615 300.079 307.63 300.109C307.645 300.14 307.651 300.174 307.646 300.208C307.639 300.242 307.622 300.274 307.598 300.299C307.574 300.325 307.543 300.343 307.509 300.353C306.882 300.511 306.239 300.597 305.592 300.61ZM304.513 299.112C304.437 299.107 304.36 299.122 304.291 299.155C304.248 299.155 304.197 299.223 304.188 299.352C304.17 299.467 304.182 299.585 304.223 299.694C304.263 299.804 304.331 299.901 304.419 299.977C304.813 300.311 305.763 300.353 306.987 300.105C306.243 299.62 305.411 299.283 304.539 299.112H304.513Z" fill="#0099FF"/>
<path d="M307.475 300.353H307.39C306.645 299.942 305.19 298.359 305.344 297.546C305.37 297.419 305.438 297.306 305.538 297.225C305.638 297.144 305.763 297.1 305.892 297.1C306.021 297.082 306.153 297.092 306.279 297.129C306.404 297.166 306.52 297.229 306.619 297.314C307.475 298.008 307.638 300.096 307.646 300.182C307.648 300.213 307.642 300.245 307.629 300.273C307.615 300.302 307.595 300.326 307.569 300.345C307.539 300.355 307.507 300.358 307.475 300.353V300.353ZM306.012 297.417H305.934C305.712 297.417 305.695 297.554 305.686 297.597C305.592 298.068 306.542 299.309 307.261 299.84C307.209 299.012 306.911 298.219 306.405 297.563C306.294 297.471 306.155 297.42 306.012 297.417V297.417Z" fill="#0099FF"/>
<path d="M295.868 94.6993L287.873 94.5966C285.185 94.5966 282.514 94.511 279.869 94.4682C279.065 94.4682 278.277 94.4168 277.481 94.3826C277.532 94.3826 277.567 94.2884 277.609 94.2456C278.174 93.6464 278.739 93.0301 279.321 92.4395C279.612 92.1313 279.898 91.8317 280.177 91.5406C280.443 91.2496 280.785 90.9243 280.965 90.6846L281.692 89.7602C282.266 89.0286 282.595 88.135 282.632 87.2061C282.669 86.2772 282.412 85.3603 281.899 84.5854C281.385 83.8104 280.641 83.2169 279.771 82.8889C278.901 82.5609 277.95 82.5151 277.053 82.7581L275.469 83.1861C274.981 83.3316 274.493 83.4942 274.006 83.6569C273.047 83.9907 272.105 84.3588 271.172 84.7611C269.292 85.5913 267.475 86.5583 265.737 87.6544C263.936 88.8054 262.232 90.1023 260.643 91.5321C258.962 93.061 257.439 94.756 256.098 96.591C255.76 97.0489 255.473 97.5427 255.242 98.0634C254.447 99.8853 254.408 101.948 255.133 103.799C255.859 105.65 257.29 107.137 259.111 107.933L259.89 108.275C261.649 109.032 263.471 109.634 265.334 110.073C266.961 110.492 268.501 110.766 270.017 111.023C271.532 111.28 273.013 111.485 274.485 111.665C275.957 111.845 277.412 111.982 278.868 112.102C281.769 112.359 284.646 112.487 287.513 112.573C290.381 112.658 293.189 112.658 296.167 112.521C298.49 112.422 300.683 111.42 302.277 109.728C303.872 108.036 304.743 105.789 304.705 103.464C304.667 101.14 303.723 98.9217 302.074 97.2829C300.425 95.6441 298.201 94.714 295.876 94.6907L295.868 94.6993Z" fill="#FFC3BD"/>
<path d="M300.525 110.321C293.617 118.196 276.993 115.252 276.993 115.252L277.909 95.6323C283.607 94.3783 289.418 93.7043 295.252 93.6207C305.01 93.6036 306.054 104.004 300.525 110.321Z" fill="#263238"/>
<path d="M282.086 104.286C281.676 107.454 281.23 111.717 280.965 117.452C277.361 135.685 276.017 148.602 279.202 158.026C281.718 161.133 314.512 160.534 320.41 159.935C323.834 151.461 324.193 127.133 324.595 106.683C324.646 103.865 323.685 101.123 321.887 98.9523C320.089 96.782 317.572 95.3278 314.794 94.8534C307.414 93.5453 299.886 93.2916 292.435 94.1001C289.82 94.3976 287.38 95.5625 285.504 97.4088C283.629 99.2551 282.425 101.676 282.086 104.286V104.286Z" fill="#263238"/>
<path opacity="0.2" d="M313.904 116.733C314.015 122.964 318.535 132.92 323.619 137.97C323.928 132.706 324.124 126.996 324.279 121.235L313.904 116.733Z" fill="black"/>
<path d="M342.477 128.845L342.186 128.16C340.99 125.305 339.591 122.539 338 119.883C336.477 117.315 334.833 114.892 333.13 112.555C331.426 110.219 329.62 107.984 327.771 105.81C326.83 104.732 325.896 103.653 324.912 102.609L323.431 101.051L321.856 99.4586C320.206 97.8295 317.987 96.9069 315.668 96.8863C313.35 96.8657 311.115 97.7488 309.436 99.3483C307.757 100.948 306.768 103.138 306.677 105.455C306.585 107.772 307.4 110.033 308.948 111.759L309.204 112.042L314.229 117.632C315.941 119.532 317.576 121.466 319.203 123.392C319.99 124.36 320.803 125.327 321.539 126.311C322.276 127.296 323.055 128.246 323.791 129.222C324.852 130.703 325.879 132.175 326.795 133.622C326.655 134.352 326.478 135.075 326.265 135.787C325.649 137.861 324.927 139.901 324.099 141.899C323.243 144.013 322.336 146.179 321.394 148.311C320.452 150.442 319.442 152.668 318.543 154.808L318.458 154.996C318.063 155.942 318.004 156.994 318.288 157.979C318.573 158.963 319.185 159.821 320.023 160.411C320.861 161.001 321.875 161.287 322.898 161.222C323.921 161.157 324.891 160.746 325.648 160.055C327.536 158.305 329.328 156.453 331.015 154.508C332.727 152.585 334.334 150.559 335.835 148.43C336.596 147.36 337.324 146.248 338.043 145.092C338.79 143.917 339.473 142.703 340.089 141.454C340.782 140.092 341.383 138.685 341.887 137.242C342.543 135.395 342.913 133.458 342.982 131.499C343.004 130.588 342.832 129.684 342.477 128.845V128.845Z" fill="#FFC3BD"/>
<path d="M315.376 94.9647C326.924 96.942 334.448 112.573 334.448 112.573L320.529 127.544C320.529 127.544 312.509 119.378 307.689 111.811C302.493 103.576 307.107 93.5608 315.376 94.9647Z" fill="#263238"/>
<path d="M294.284 70.3204C292.35 67.0762 291.716 62.6164 295.26 58.071C294.57 58.1576 293.869 58.0419 293.243 57.738C292.617 57.4341 292.092 56.9551 291.733 56.359C295.614 53.1842 300.493 51.486 305.506 51.5654C315.864 51.5654 316.634 55.563 316.283 58.2936C323.371 58.7473 328.541 77.177 310.574 80.4383C300.293 69.6099 294.284 70.3204 294.284 70.3204Z" fill="#263238"/>
<path d="M315.633 58.6274C315.633 58.6274 318.518 55.6828 314.931 52.1218C315.735 52.3423 316.468 52.7673 317.06 53.3553C317.651 53.9434 318.079 54.6744 318.304 55.4773C318.809 57.5489 317.414 59.2095 315.633 58.6274Z" fill="#263238"/>
<path d="M311.661 78.187C311.387 83.8623 310.874 90.3166 311.824 94.8448C310.351 97.1646 306.585 99.8353 299.84 100.434C297.443 99.0734 294.276 95.7436 295.38 94.0316C298.248 92.1912 299.463 86.6187 298.641 82.4499L311.661 78.187Z" fill="#FFC3BD"/>
<path opacity="0.2" d="M308.374 79.257L298.624 82.4499C298.956 84.2252 298.97 86.0452 298.667 87.8256C301.577 87.7314 305.609 85.5401 307.124 83.4857C307.618 82.9081 307.984 82.233 308.2 81.5044C308.415 80.7759 308.474 80.0101 308.374 79.257Z" fill="black"/>
<path d="M314.503 69.199C312.697 76.1583 311.995 80.327 307.732 83.246C301.321 87.6373 293.257 82.7153 292.94 75.3622C292.667 68.7368 295.663 58.4648 303.11 57.001C304.75 56.6722 306.446 56.768 308.039 57.2795C309.631 57.7909 311.066 58.701 312.208 59.9232C313.349 61.1454 314.159 62.6392 314.561 64.2627C314.963 65.8862 314.943 67.5854 314.503 69.199V69.199Z" fill="#FFC3BD"/>
<path d="M313.065 59.2352C310.009 61.4094 306.217 70.62 313.921 74.3179C320.838 68.2403 319.048 59.2352 313.065 59.2352Z" fill="#263238"/>
<path d="M314.828 60.3395C316.138 54.279 300.841 51.146 295.996 58.2251C294.353 62.488 313.904 66.2544 314.828 60.3395Z" fill="#263238"/>
<path d="M303.418 76.5863C301.828 75.8677 300.124 75.4359 298.385 75.3109C298.36 75.3109 298.336 75.3158 298.314 75.3253C298.291 75.3349 298.271 75.3489 298.254 75.3665C298.238 75.3841 298.224 75.405 298.216 75.4278C298.207 75.4506 298.204 75.4749 298.205 75.4992C298.214 75.5545 298.242 75.605 298.284 75.6423C298.326 75.6796 298.38 75.7016 298.436 75.7046C300.104 75.8252 301.738 76.2366 303.264 76.9202C303.312 76.9412 303.366 76.9432 303.415 76.9257C303.464 76.9082 303.505 76.8725 303.529 76.826C303.539 76.8031 303.543 76.7784 303.543 76.7536C303.542 76.7287 303.536 76.7043 303.526 76.6818C303.515 76.6593 303.5 76.6392 303.482 76.6227C303.463 76.6063 303.441 76.5939 303.418 76.5863V76.5863Z" fill="#263238"/>
<path d="M316.172 76.8089C314.932 78.1256 313.221 78.898 311.413 78.9575C309.016 79.0088 308.408 76.7233 309.564 74.7716C310.608 73.0596 313.108 70.8683 315.282 71.7414C317.456 72.6145 317.679 75.1739 316.172 76.8089Z" fill="#FFC3BD"/>
<path d="M303.435 69.0792C303.324 69.6527 302.93 70.0636 302.579 69.9866C302.228 69.9095 301.997 69.3874 302.108 68.8138C302.22 68.2403 302.613 67.838 302.964 67.9578C303.315 68.0777 303.546 68.48 303.435 69.0792Z" fill="#263238"/>
<path d="M296.955 67.8209C296.844 68.3944 296.45 68.7967 296.099 68.7282C295.748 68.6598 295.509 68.1291 295.62 67.5555C295.731 66.982 296.125 66.5711 296.476 66.6482C296.827 66.7252 297.032 67.2474 296.955 67.8209Z" fill="#263238"/>
<path d="M298.958 68.48C297.931 70.1001 296.687 71.5719 295.26 72.8542C296.116 73.9926 298.008 73.7701 298.008 73.7701L298.958 68.48Z" fill="#ED847E"/>
<path d="M302.502 65.7494C302.563 65.736 302.627 65.7384 302.686 65.7564C302.746 65.7743 302.801 65.8073 302.844 65.8521C303.119 66.1843 303.469 66.4467 303.865 66.6178C304.26 66.7889 304.691 66.8638 305.121 66.8365C305.212 66.8241 305.304 66.8476 305.377 66.902C305.451 66.9564 305.5 67.0373 305.515 67.1275C305.522 67.1721 305.52 67.2176 305.51 67.2614C305.499 67.3052 305.479 67.3464 305.452 67.3824C305.425 67.4184 305.39 67.4485 305.351 67.4709C305.312 67.4933 305.269 67.5075 305.224 67.5127C304.68 67.5565 304.134 67.4698 303.631 67.2598C303.128 67.0499 302.682 66.7228 302.331 66.3058C302.299 66.2747 302.273 66.2374 302.256 66.1962C302.238 66.1551 302.229 66.1108 302.229 66.0661C302.229 66.0214 302.238 65.9771 302.256 65.936C302.273 65.8948 302.299 65.8575 302.331 65.8264C302.382 65.7886 302.44 65.7623 302.502 65.7494V65.7494Z" fill="#263238"/>
<path d="M294.952 63.849C294.881 63.8343 294.817 63.7949 294.772 63.7378C294.743 63.7021 294.722 63.661 294.709 63.6169C294.697 63.5728 294.693 63.5266 294.699 63.4811C294.704 63.4356 294.719 63.3917 294.742 63.352C294.765 63.3122 294.795 63.2775 294.832 63.2498C295.253 62.9053 295.749 62.6658 296.28 62.5512C296.812 62.4365 297.363 62.4501 297.888 62.5907C297.975 62.6201 298.046 62.6822 298.088 62.7637C298.13 62.8453 298.138 62.9399 298.111 63.0273C298.076 63.1099 298.013 63.1772 297.933 63.2166C297.852 63.256 297.76 63.2648 297.674 63.2413V63.2413C297.256 63.1346 296.818 63.1286 296.397 63.2238C295.976 63.3191 295.583 63.5128 295.252 63.7891C295.212 63.8251 295.163 63.8496 295.11 63.8601C295.057 63.8707 295.003 63.8668 294.952 63.849V63.849Z" fill="#263238"/>
<path d="M322.584 154.559L315.231 154.508L319.031 162.948C319.031 162.948 325.306 161.604 324.963 158.197L322.584 154.559Z" fill="#FFC3BD"/>
<path d="M311.49 160.303L312.697 162.683C313.021 163.316 313.571 163.806 314.237 164.056C314.904 164.306 315.639 164.299 316.301 164.035L319.031 162.948L315.231 154.508L312.312 156.734C311.777 157.137 311.402 157.716 311.252 158.369C311.101 159.022 311.186 159.706 311.49 160.303Z" fill="#FFC3BD"/>
<path d="M266.61 148.345C265.722 148.336 264.855 148.067 264.117 147.573C263.379 147.078 262.802 146.379 262.455 145.561C262.109 144.743 262.009 143.842 262.168 142.968C262.326 142.094 262.737 141.285 263.349 140.641C266.618 137.268 269.572 134.649 272.174 132.363C278.457 126.825 280.623 124.659 280.417 120.508C280.11 117.946 279.565 115.419 278.791 112.958C276.916 106.067 274.793 98.2688 278.431 92.0114C280.383 88.6473 283.696 86.3447 288.284 85.1634C289.444 84.8881 290.666 85.0787 291.687 85.6943C292.708 86.3098 293.447 87.3012 293.745 88.4556C294.043 89.6099 293.876 90.8351 293.281 91.8681C292.686 92.9011 291.709 93.6594 290.561 93.9802C287.334 94.8362 286.555 96.1459 286.281 96.591C284.569 99.5442 286.221 105.656 287.556 110.561C288.523 113.654 289.171 116.838 289.491 120.063C289.919 128.837 284.74 133.408 278.174 139.194C275.701 141.385 272.884 143.868 269.854 146.984C269.432 147.416 268.927 147.758 268.37 147.992C267.812 148.226 267.214 148.346 266.61 148.345V148.345Z" fill="#0099FF"/>
<path d="M276.599 82.9464L283.721 81.1231L282.061 90.231C282.061 90.231 275.649 90.4278 275.17 87.0466L276.599 82.9464Z" fill="#FFC3BD"/>
<path d="M288.72 85.9509L288.172 88.3306C288.004 89.0575 287.57 89.6952 286.955 90.1181C286.341 90.5411 285.59 90.7187 284.851 90.6161L282.061 90.231L283.721 81.1231L286.991 82.5355C287.634 82.8123 288.159 83.3057 288.475 83.9299C288.791 84.554 288.877 85.2693 288.72 85.9509Z" fill="#FFC3BD"/>
<path d="M264.064 133.367L263.87 133.173C263.004 132.308 261.6 132.308 260.735 133.174L235.493 158.425C234.627 159.291 234.627 160.694 235.493 161.56L235.687 161.754C236.553 162.619 237.957 162.619 238.822 161.753L264.064 136.502C264.93 135.636 264.93 134.233 264.064 133.367Z" fill="#263238"/>
<path d="M277.219 146.506L277.026 146.312C276.16 145.446 274.756 145.446 273.89 146.312L248.644 171.559C247.778 172.424 247.778 173.828 248.644 174.694L248.838 174.888C249.703 175.753 251.107 175.753 251.973 174.888L277.219 149.641C278.085 148.775 278.085 147.372 277.219 146.506Z" fill="#263238"/>
<path d="M243.457 142.766L261.246 124.977C261.816 124.407 262.493 123.955 263.237 123.647C263.982 123.338 264.78 123.179 265.586 123.179C266.392 123.179 267.19 123.338 267.935 123.647C268.68 123.955 269.356 124.407 269.926 124.977L285.476 140.527C286.046 141.097 286.498 141.773 286.806 142.518C287.115 143.263 287.273 144.061 287.273 144.867C287.273 145.673 287.115 146.471 286.806 147.215C286.498 147.96 286.046 148.637 285.476 149.207L267.687 166.996L243.457 142.766Z" fill="#0099FF"/>
<path opacity="0.7" d="M243.457 142.766L261.246 124.977C261.816 124.407 262.493 123.955 263.237 123.647C263.982 123.338 264.78 123.179 265.586 123.179C266.392 123.179 267.19 123.338 267.935 123.647C268.68 123.955 269.356 124.407 269.926 124.977L285.476 140.527C286.046 141.097 286.498 141.773 286.806 142.518C287.115 143.263 287.273 144.061 287.273 144.867C287.273 145.673 287.115 146.471 286.806 147.215C286.498 147.96 286.046 148.637 285.476 149.207L267.687 166.996L243.457 142.766Z" fill="white"/>
<path opacity="0.2" d="M249.593 136.583L243.429 142.738L267.663 166.971L273.817 160.808C273.573 160.091 273.165 159.441 272.628 158.908L251.493 137.816C250.964 137.263 250.313 136.841 249.593 136.583V136.583Z" fill="#0099FF"/>
<path d="M242.39 139.634L241.949 140.076C240.07 141.955 240.07 145.001 241.949 146.88L263.527 168.458C265.406 170.337 268.452 170.337 270.33 168.458L270.772 168.016C272.651 166.137 272.651 163.091 270.772 161.213L249.194 139.634C247.315 137.756 244.269 137.756 242.39 139.634Z" fill="#0099FF"/>
</svg>
